<svg width="136" height="37" viewBox="0 0 136 37" fill="none" xmlns="http://www.w3.org/2000/svg">
<path d="M49.8353 17.8164C49.7617 17.0559 49.4456 16.4652 48.8871 16.0441C48.3286 15.6231 47.5707 15.4125 46.6133 15.4125C45.9627 15.4125 45.4134 15.5068 44.9654 15.6953C44.5174 15.8776 44.1737 16.1321 43.9343 16.4589C43.7011 16.7857 43.5845 17.1565 43.5845 17.5713C43.5723 17.9169 43.6428 18.2186 43.7963 18.4762C43.9558 18.7339 44.1737 18.957 44.4499 19.1456C44.7261 19.3278 45.0452 19.4881 45.4073 19.6263C45.7694 19.7583 46.156 19.8714 46.5672 19.9657L48.2611 20.3805C49.0835 20.569 49.8384 20.8204 50.5258 21.1346C51.2131 21.4488 51.8084 21.8353 52.3117 22.2941C52.8149 22.7529 53.2047 23.2934 53.4808 23.9155C53.7632 24.5377 53.9074 25.251 53.9135 26.0554C53.9074 27.2369 53.6128 28.2613 53.0298 29.1286C52.4529 29.9896 51.6182 30.6589 50.5258 31.1365C49.4395 31.6078 48.1292 31.8435 46.5948 31.8435C45.0728 31.8435 43.7472 31.6047 42.6179 31.1271C41.4948 30.6494 40.6172 29.9424 39.985 29.006C39.359 28.0633 39.0307 26.8976 39 25.5087H42.8573C42.9002 26.156 43.0813 26.6965 43.4004 27.1301C43.7257 27.5574 44.1584 27.8811 44.6984 28.1011C45.2447 28.3147 45.8614 28.4216 46.5488 28.4216C47.2239 28.4216 47.81 28.321 48.3071 28.1199C48.8104 27.9188 49.2001 27.6391 49.4763 27.2809C49.7525 26.9227 49.8905 26.5111 49.8905 26.046C49.8905 25.6124 49.7647 25.2479 49.5131 24.9525C49.2676 24.6571 48.9055 24.4057 48.4268 24.1983C47.9542 23.9909 47.3743 23.8024 46.6869 23.6327L44.634 23.1048C43.0444 22.7089 41.7894 22.0899 40.8688 21.2477C39.9482 20.4056 39.491 19.2712 39.4971 17.8446C39.491 16.6757 39.7948 15.6545 40.4085 14.7809C41.0284 13.9074 41.8784 13.2255 42.9585 12.7353C44.0387 12.2451 45.2661 12 46.6409 12C48.0402 12 49.2615 12.2451 50.3048 12.7353C51.3543 13.2255 52.1705 13.9074 52.7536 14.7809C53.3366 15.6545 53.6373 16.6663 53.6558 17.8164H49.8353Z" fill="black"/>
<path d="M60.4428 23.1991V31.5701H56.5211V12.264H60.3323V19.6452H60.498C60.8172 18.7905 61.3327 18.1212 62.0446 17.6373C62.7565 17.1471 63.6495 16.902 64.7235 16.902C65.7055 16.902 66.5616 17.1219 67.292 17.5618C68.0284 17.9955 68.5992 18.6208 69.0042 19.4378C69.4154 20.2485 69.618 21.2195 69.6118 22.3507V31.5701H65.6901V23.0671C65.6963 22.1747 65.4753 21.4803 65.0273 20.9838C64.5854 20.4873 63.9656 20.2391 63.1677 20.2391C62.6338 20.2391 62.1612 20.3553 61.75 20.5879C61.345 20.8204 61.0258 21.1598 60.7926 21.606C60.5655 22.0459 60.4489 22.5769 60.4428 23.1991Z" fill="black"/>
<path d="M79.087 31.8529C77.657 31.8529 76.4203 31.5419 75.377 30.9197C74.3398 30.2912 73.5389 29.4177 72.9743 28.299C72.4097 27.1741 72.1273 25.87 72.1273 24.3869C72.1273 22.8912 72.4097 21.584 72.9743 20.4653C73.5389 19.3404 74.3398 18.4668 75.377 17.8446C76.4203 17.2162 77.657 16.902 79.087 16.902C80.517 16.902 81.7505 17.2162 82.7877 17.8446C83.8311 18.4668 84.6351 19.3404 85.1997 20.4653C85.7643 21.584 86.0466 22.8912 86.0466 24.3869C86.0466 25.87 85.7643 27.1741 85.1997 28.299C84.6351 29.4177 83.8311 30.2912 82.7877 30.9197C81.7505 31.5419 80.517 31.8529 79.087 31.8529ZM79.1054 28.7421C79.7559 28.7421 80.2991 28.5535 80.7348 28.1765C81.1706 27.7931 81.4989 27.2715 81.7199 26.6116C81.9469 25.9517 82.0605 25.2007 82.0605 24.3586C82.0605 23.5165 81.9469 22.7655 81.7199 22.1056C81.4989 21.4457 81.1706 20.9241 80.7348 20.5407C80.2991 20.1574 79.7559 19.9657 79.1054 19.9657C78.4487 19.9657 77.8964 20.1574 77.4483 20.5407C77.0065 20.9241 76.672 21.4457 76.4449 22.1056C76.224 22.7655 76.1135 23.5165 76.1135 24.3586C76.1135 25.2007 76.224 25.9517 76.4449 26.6116C76.672 27.2715 77.0065 27.7931 77.4483 28.1765C77.8964 28.5535 78.4487 28.7421 79.1054 28.7421Z" fill="black"/>
<path d="M88.5966 37V17.0905H92.4631V19.5226H92.638C92.8099 19.133 93.0584 18.7371 93.3837 18.3348C93.7151 17.9263 94.1447 17.587 94.6725 17.3167C95.2065 17.0402 95.8693 16.902 96.661 16.902C97.6921 16.902 98.6433 17.1785 99.5148 17.7315C100.386 18.2783 101.083 19.1047 101.605 20.2108C102.126 21.3106 102.387 22.69 102.387 24.3492C102.387 25.9643 102.132 27.3281 101.623 28.4404C101.12 29.5465 100.432 30.3855 99.5608 30.9574C98.6955 31.523 97.7258 31.8058 96.6518 31.8058C95.8908 31.8058 95.2433 31.677 94.7093 31.4193C94.1815 31.1616 93.7489 30.838 93.4113 30.4483C93.0738 30.0524 92.816 29.6533 92.638 29.2511H92.5184V37H88.5966ZM92.4355 24.3303C92.4355 25.1913 92.5521 25.9423 92.7853 26.5833C93.0185 27.2244 93.3561 27.724 93.798 28.0822C94.2398 28.4341 94.7769 28.6101 95.409 28.6101C96.0473 28.6101 96.5873 28.431 97.0292 28.0728C97.4711 27.7083 97.8056 27.2055 98.0327 26.5645C98.2659 25.9172 98.3825 25.1724 98.3825 24.3303C98.3825 23.4945 98.269 22.7592 98.0419 22.1244C97.8148 21.4897 97.4803 20.9932 97.0384 20.635C96.5966 20.2768 96.0534 20.0977 95.409 20.0977C94.7707 20.0977 94.2306 20.2705 93.7888 20.6161C93.353 20.9618 93.0185 21.452 92.7853 22.0867C92.5521 22.7215 92.4355 23.4693 92.4355 24.3303Z" fill="black"/>
<path d="M116.721 12.264H120.707V24.8017C120.707 26.2094 120.378 27.4412 119.722 28.497C119.071 29.5528 118.16 30.3761 116.988 30.9668C115.815 31.5513 114.45 31.8435 112.891 31.8435C111.326 31.8435 109.957 31.5513 108.785 30.9668C107.613 30.3761 106.702 29.5528 106.051 28.497C105.4 27.4412 105.075 26.2094 105.075 24.8017V12.264H109.061V24.4529C109.061 25.1882 109.218 25.8418 109.531 26.4136C109.85 26.9855 110.298 27.4349 110.875 27.7617C111.452 28.0885 112.124 28.2519 112.891 28.2519C113.664 28.2519 114.336 28.0885 114.907 27.7617C115.484 27.4349 115.929 26.9855 116.242 26.4136C116.561 25.8418 116.721 25.1882 116.721 24.4529V12.264Z" fill="black"/>
<path d="M135.678 21.2195L132.088 21.4457C132.026 21.1315 131.894 20.8487 131.692 20.5973C131.489 20.3396 131.222 20.1354 130.891 19.9845C130.565 19.8274 130.176 19.7489 129.722 19.7489C129.114 19.7489 128.602 19.8808 128.184 20.1448C127.767 20.4025 127.558 20.7481 127.558 21.1817C127.558 21.5274 127.693 21.8196 127.963 22.0584C128.233 22.2973 128.697 22.4889 129.353 22.6335L131.913 23.1614C133.287 23.4505 134.312 23.9155 134.987 24.5566C135.662 25.1976 136 26.0397 136 27.083C136 28.0319 135.727 28.8646 135.181 29.5811C134.641 30.2975 133.898 30.8568 132.953 31.2591C132.014 31.655 130.931 31.8529 129.703 31.8529C127.831 31.8529 126.34 31.4539 125.229 30.6557C124.124 29.8513 123.477 28.7578 123.287 27.3752L127.144 27.1678C127.261 27.7523 127.543 28.1985 127.991 28.5064C128.439 28.8081 129.013 28.9589 129.712 28.9589C130.4 28.9589 130.952 28.8238 131.369 28.5535C131.793 28.277 132.008 27.9219 132.014 27.4883C132.008 27.1238 131.857 26.8253 131.563 26.5928C131.268 26.3539 130.814 26.1717 130.2 26.046L127.752 25.5464C126.371 25.2636 125.343 24.7734 124.668 24.0758C123.999 23.3782 123.664 22.4889 123.664 21.408C123.664 20.4779 123.91 19.6766 124.401 19.0041C124.898 18.3317 125.594 17.8132 126.49 17.4487C127.393 17.0842 128.448 16.902 129.657 16.902C131.443 16.902 132.849 17.2885 133.873 18.0615C134.904 18.8345 135.506 19.8871 135.678 21.2195Z" fill="black"/>
<g clip-path="url(#clip0_55_17590)">
<path fill-rule="evenodd" clip-rule="evenodd" d="M3.42084 24.8615C1.57194 23.9204 1.12805 22.4145 3.42084 20.3706C-1.81256 24.4982 -0.413343 27.0613 3.42084 28.3147V36H28.5772C28.5772 34.0173 28.5804 25.2502 28.5772 23.4586C27.627 22.6095 26.3114 22.4197 25.1014 22.2039V32.4756H6.89863V29.0406C9.72344 29.4052 20.9133 29.4691 20.8928 26.3178C20.9352 25.6963 20.7146 25.1047 20.1922 24.7526C19.7386 24.4389 19.2092 24.3756 18.6971 24.5771C14.1733 26.2056 7.82565 26.741 3.42084 24.8615Z" fill="#AE1C9A"/>
<path fill-rule="evenodd" clip-rule="evenodd" d="M19.9922 10.4975H12.0079C11.8227 7.29139 11.9893 3.75139 15.9997 3.53226C20.0095 3.75204 20.1787 7.29269 19.9922 10.4975ZM28.5792 21.6379C30.4281 22.579 30.872 24.0842 28.5792 26.1288C33.8145 22.0012 32.4134 19.4381 28.5773 18.1846V10.4975H23.47C25.1233 -3.50405 6.87295 -3.49427 8.53014 10.4975H3.4209C3.4209 12.4801 3.4209 21.2486 3.4209 23.0407C4.3743 23.8873 5.68603 24.081 6.89933 24.2955V14.0238C12.3399 14.0238 19.6609 14.0238 25.1014 14.0238V17.4607C22.2772 17.0942 11.0861 17.0303 11.1073 20.1816C11.0648 20.8025 11.2848 21.394 11.8079 21.7468C12.2614 22.0605 12.7928 22.1238 13.3029 21.9242C17.8255 20.2931 24.1757 19.7577 28.5792 21.6379Z" fill="#F2C94C"/>
</g>
<defs>
<clipPath id="clip0_55_17590">
<rect width="32" height="36" fill="white"/>
</clipPath>
</defs>
</svg>
